<?xml version="1.0" encoding="utf-8"?>
<!-- Generator: Adobe Illustrator 22.1.0, SVG Export Plug-In . SVG Version: 6.00 Build 0)  -->
<svg version="1.1" id="Слой_1" xmlns="http://www.w3.org/2000/svg" xmlns:xlink="http://www.w3.org/1999/xlink" x="0px" y="0px"
	 viewBox="0 0 1000 1000" style="enable-background:new 0 0 1000 1000;" xml:space="preserve">
<style type="text/css">
	.st0{fill:#F16748;}
</style>
<g>
	<circle class="st0" cx="225.6" cy="500" r="23.1"/>
	<circle class="st0" cx="774.4" cy="500" r="23.1"/>
	<circle class="st0" cx="500" cy="774.4" r="23.1"/>
	<circle class="st0" cx="500" cy="225.6" r="23.1"/>
	<g>
		<path class="st0" d="M509.4,776.8l-0.2-5c20-0.7,39.8-3.5,59-8.5l1.3,4.9C549.9,773.2,529.7,776.1,509.4,776.8z M448.9,772.3
			c-19.9-3.7-39.5-9.7-58.1-17.6l2-4.6c18.3,7.8,37.5,13.7,57,17.3L448.9,772.3z M626.2,746.6l-2.3-4.5
			c17.7-9.1,34.4-20.1,49.7-32.8l3.2,3.9C661.2,726.1,644.2,737.4,626.2,746.6z M338,724.7c-16.4-11.9-31.6-25.5-45-40.7l3.8-3.3
			c13.2,14.9,28.1,28.3,44.2,40L338,724.7z M719,669.5l-4-3.1c12.2-15.7,22.7-32.8,31.1-50.8l4.5,2.1
			C742.1,636.1,731.5,653.5,719,669.5z M257.8,634.5c-9.9-17.7-17.8-36.5-23.5-56l4.8-1.4c5.6,19.1,13.4,37.5,23.1,54.9L257.8,634.5
			z M770.4,560.3l-4.9-1.1c4.3-19.3,6.5-39.3,6.5-59.2c0-12.3-0.8-24.7-2.5-36.8l5-0.7c1.7,12.3,2.5,25,2.5,37.5
			C777,520.3,774.7,540.6,770.4,560.3z M223.7,518.8c-0.4-6.2-0.6-12.5-0.6-18.8c0-14,1.1-28.1,3.1-41.8l5,0.8
			c-2,13.5-3.1,27.3-3.1,41.1c0,6.2,0.2,12.4,0.6,18.5L223.7,518.8z M755,405.4c-6.9-18.6-15.9-36.5-26.8-53.2l4.2-2.7
			c11.1,17,20.2,35.3,27.3,54.2L755,405.4z M246.5,401.3l-4.7-1.8c7.3-18.8,16.8-36.9,28.1-53.8l4.2,2.8
			C263,365.1,253.7,382.8,246.5,401.3z M690.5,306c-14.2-14-30-26.4-46.8-36.9l2.7-4.3c17.2,10.7,33.2,23.3,47.7,37.6L690.5,306z
			 M312.6,303l-3.5-3.6c14.7-14,30.9-26.4,48.3-36.8l2.6,4.3C342.9,277.1,327,289.3,312.6,303z M590,243.3
			c-18.7-6.6-38.3-11.1-58.1-13.4l0.6-5c20.2,2.4,40.1,6.9,59.2,13.6L590,243.3z M414.1,241.9l-1.6-4.8
			c19.2-6.4,39.1-10.7,59.3-12.7l0.5,5C452.5,231.5,432.9,235.7,414.1,241.9z"/>
	</g>
	<g>
		<path class="st0" d="M495,295.4c-74.6,0-135,60.5-135,135c0,110.6,135,274.2,135,274.2s135-166.4,135-274.2
			C630,355.8,569.6,295.4,495,295.4z M495,542.7c-62.4,0-113-50.6-113-113c0-62.4,50.6-113,113-113c62.4,0,113.1,50.6,113.1,113
			C608.1,492.1,557.4,542.7,495,542.7z"/>
		<path class="st0" d="M504.1,399.1c-0.1-1.5-0.3-2.9-0.4-4.4c0-0.4-0.1-0.8-0.1-1.1c-0.1-0.7-0.1-1.4-0.2-2.1
			c-0.1-0.7-0.1-1.5-0.2-2.2c-0.1-0.7-0.2-1.5-0.2-2.3c0-0.4-0.1-0.8-0.1-1.2c0-0.3-0.1-0.5-0.1-0.8c0-0.2-0.1-0.4-0.1-0.6
			c-0.9-7-2.5-17.5-7.4-36.2c-1.1-4-2.9-6.3-4.7-6c-2.2,0.4-3.3,4.4-3,11c0.2,4.1,0.3,14.6,0.2,31.2v0.7c0,0.2,0,0.5,0,0.7
			c0,0.7,0,1.4,0,2.1c0,0.5,0,0.9,0,1.4c0,0.2,0,0.5,0,0.7c0,0.5,0,0.9,0,1.4c0,0.2,0,0.4,0,0.7c0,0.5,0,1,0,1.4c0,0.6,0,1.1,0,1.7
			c0,3.7,0,7.4-0.1,11c0,0.5,0,1,0,1.5c0,0.9,0,1.7,0,2.6c0,0.1,0,0.3,0,0.4c0,0.9,0,1.7,0,2.5c0,0.1,0,0.3,0,0.4c0,0.5,0,1,0,1.5
			c0,2,0,3.9-0.1,5.7c0,0.2,0,0.4,0,0.6c0,0.5,0,1,0,1.5c0,0.2,0,0.4,0,0.6c0,0.6,0,1.2,0,1.8c0,0.2,0,0.4,0,0.6c0,0.7,0,1.3,0,2
			c0,0.5,0,1,0,1.5c0,1.1,0,2,0,2.9c0,0.6,0,1.2,0,1.7c0,0.1,0,0.2,0,0.4c0,1,0,1.8,0,2.1c-0.1,4.4-1.1,30.6-1.6,36
			c-0.5,5.9-1,19.5,0,24.3c0,0.9,0.3,7.7,5.5,8.2c0.4,0,0.8,0,1.1,0c0.1,0,0.2,0,0.3-0.1c0.4-0.1,0.7-0.2,1.1-0.4
			c0.3-0.1,0.5-0.3,0.8-0.5c0.1-0.1,0.2-0.2,0.4-0.3c3.5-3.2,3.8-11,3.8-13.4c0-6.8-1.7-37.6-2.1-43.1c-0.1-0.9-0.1-1.8-0.2-2.7
			c-0.5-4.7-0.8-8.4,3.4-12.1C505.8,426.9,505.1,409.2,504.1,399.1z M489.3,384.5L489.3,384.5v0.7V384.5z"/>
		<path class="st0" d="M521.9,357.8c0-2.5-0.1-5.7,1.7-5.7s1.8,1.5,1.8,3.1c0,1.6,0.1,26.7,0,28.7c0,2-0.2,4.9,2.1,4.9
			s2.5-1.6,2.4-6c-0.1-4.3,0-26.2,0-27.3c0-1.1,0-3.5,1.5-3.5s1.9,0.9,1.9,3.2c0,2.3,0,28.8,0,29.9s-0.1,3.7,2.3,3.6
			c2.5,0,2.2-3.3,2.2-4.5s0-28.9,0-29.5s0.2-2.7,1.7-2.7s1.9,1.3,1.9,3.2s0,28.7,0,30s-0.2,3.3,1.9,3.3c2.2,0,2.5-1.3,2.5-3.5
			c0-2.3,0-28.2,0-29.6c0-1.4-0.1-3.2,1.4-3.3s2.1,0.9,2.1,3.9c0,3-0.1,38.5,0,41.4c0.1,2.8-0.2,8.8-3.5,11.8s-6.1,3.8-6.9,3.9
			c0.1,2,3.6,80.5,3.6,84s-2.8,7.8-6.9,7.8c-4.2,0-7.6-3.8-7.6-6.5c0-2.7,3.8-85.4,3.8-85.4s-10-3.1-9.9-12.6
			S521.9,357.8,521.9,357.8z"/>
		<path class="st0" d="M454.8,413.5c0.6,11.4,3.6,80.2,3.6,83.5c0,3.6-2.8,7.9-7,7.9c-4.2,0-7.7-3.9-7.7-6.6
			c0-2.5,3.3-73.5,3.8-84.9c-11.9-1.7-15.8-11.7-15.8-27.2c0-7.5,2.5-15,5.8-21.1c1.1-2,2.3-3.9,3.6-5.6c1.5-2,3.1-3.7,4.6-4.9
			c1.2-1,2.3-1.7,3.4-2.2c0.8-0.4,1.6-0.6,2.4-0.6c0.7,0,1.5,0.2,2.3,0.4c1.2,0.4,2.4,1.1,3.6,2.1c1.5,1.2,3,2.8,4.5,4.6
			c1.2,1.6,2.4,3.4,3.5,5.4c3.4,6.2,5.9,14,5.9,21.8C471.1,402,467.5,412,454.8,413.5z"/>
	</g>
</g>
</svg>
